inDegrees=yes
name=ik_S53_A03_T02
DataType=double
version=3
OpenSimVersion=4.3-2021-08-27-4bc7ad9
endheader
time	pelvis_tilt	pelvis_list	pelvis_rotation	pelvis_tx	pelvis_ty	pelvis_tz	hip_flexion_r	hip_adduction_r	hip_rotation_r	knee_angle_r	knee_angle_r_beta	ankle_angle_r	subtalar_angle_r	mtp_angle_r	hip_flexion_l	hip_adduction_l	hip_rotation_l	knee_angle_l	knee_angle_l_beta	ankle_angle_l	subtalar_angle_l	mtp_angle_l	lumbar_extension	lumbar_bending	lumbar_rotation	arm_flex_r	arm_add_r	arm_rot_r	elbow_flex_r	pro_sup_r	wrist_flex_r	wrist_dev_r	arm_flex_l	arm_add_l	arm_rot_l	elbow_flex_l	pro_sup_l	wrist_flex_l	wrist_dev_l
0	0	0	0	0	0.9399999999999999	0	0	0	0	0	0	0	0	0	0	0	0	0	0	0	0	0	0	0	0	0	0	0	0	89.99999999963507	0	0	0	0	0	0	89.99999999869995	0	0
0.02	-0.2530818038805435	-0.2550867977087677	-78.93193405943062	0	0.9399999999999999	0	0.4050988105201947	-1.066224487084696	-4.429476729529403	0.9153119780340236	0.01597520769963573	0	0	0	0.01529354442686144	-0.8822361643960397	-1.586170907856667	1.642682035418036	0.02867021008140683	0	0	0	0	0	0	1.678441109586579	-1.678441109586579	0.2984169663417625	8.242220470532583	89.70158305082133	0	0	1.678441109586579	-1.678441109586579	0.2984169663417625	8.242220470532583	89.70158304994217	0	0
0.04	-0.2647953169402725	-0.2493231262264801	-78.93129306466668	0	0.9399999999999999	0	0.4233757978984669	-1.052924034224725	-4.429653516225649	0.9375068817322961	0.01636258184633365	0	0	0	0.02743220192838528	-0.8955379397171593	-1.585911346803889	1.656236068925267	0.02890677259303366	0	0	0	0	0	0	2.227397266941496	-2.227397266941494	0.3987816972993639	10.21229568502676	89.6012183257745	0	0	2.227397266941496	-2.227397266941494	0.3987816972993639	10.21229568502676	89.60121832489358	0	0
0.06	-0.2709229478355163	-0.2489432429527205	-78.946810116647	0	0.9399999999999999	0	0.3933090694006013	-1.063131072889771	-4.394432066326361	0.9055454969217696	0.01580475044789306	0	0	0	0.02323174347303101	-0.9046675023501812	-1.598241424362112	1.655218156200008	0.02888900666447993	0	0	0	0	0	0	2.331146695000221	-2.331146695000219	0.4178398539493478	10.46318825093161	89.58216017024408	0	0	2.331146695000221	-2.331146695000219	0.4178398539493478	10.46318825093161	89.58216016936679	0	0
0.08	-0.2858248843665034	-0.267093339812444	-78.99039360392787	0	0.9399999999999999	0	0.3672601060504885	-1.073325088377125	-4.313326075720008	0.881916276077069	0.01539234274447215	0	0	0	0.02392946298547976	-0.9293565109673344	-1.60482137556338	1.673046345482492	0.02920016726712804	0	0	0	0	0	0	2.490805865144372	-2.49080586514437	0.4470369273436502	10.79625497791295	89.55296309856276	0	0	2.490805865144372	-2.49080586514437	0.4470369273436502	10.79625497791295	89.55296309769105	0	0
0.1	-0.2923398270284877	-0.3098127572598708	-79.03646963845011	0	0.9399999999999999	0	0.3264055154858479	-1.094315408080889	-4.197666841973962	0.9078189759180159	0.01584443014185249	0	0	0	-0.004017732294983673	-0.9645962391614326	-1.595674467219825	1.679767956491566	0.02931748151027469	0	0	0	0	0	0	2.680388528189809	-2.680388528189807	0.4818560283469979	11.32979771792474	89.51814399960534	0	0	2.680388528189809	-2.680388528189807	0.4818560283469979	11.32979771792474	89.51814399874014	0	0
0.12	-0.3067084733923687	-0.352787219996812	-79.13833784746595	0	0.9399999999999999	0	0.2748879789768581	-1.073237581204418	-4.05736486013476	0.8377745287444455	0.01462192391593445	0	0	0	-0.06129887013166293	-0.9980625369311386	-1.665044559332219	1.656949875924646	0.0289192308753966	0	0	0	0	0	0	2.860218643333745	-2.860218643333744	0.5146992995624219	11.76166758132256	89.4853007303166	0	0	2.860218643333745	-2.860218643333744	0.5146992995624219	11.76166758132256	89.48530072945778	0	0
0.14	-0.3274813687340533	-0.4008897786208765	-79.22720146162118	0	0.9399999999999999	0	0.2417458298937043	-1.037304143864453	-3.954915297189662	0.8475286105456533	0.01479216475887439	0	0	0	-0.1084878413068149	-1.037607359503033	-1.710518462918522	1.648934357702298	0.02877933369116302	0	0	0	0	0	0	3.074402139528836	-3.074402139528835	0.5540422036569653	12.41950902944872	89.44595782853423	0	0	3.074402139528836	-3.074402139528835	0.5540422036569653	12.41950902944872	89.44595782768297	0	0
0.16	-0.3330562848340954	-0.4509209259177797	-79.31736259017426	0	0.9399999999999999	0	0.170895666032566	-1.026051801600628	-3.88345537695692	0.8166892191753046	0.01425391584015067	0	0	0	-0.1694150769038779	-1.049771509337184	-1.788777718807909	1.643381172596996	0.02868241232710279	0	0	0	0	0	0	3.235420789340392	-3.235420789340391	0.5833641274541028	12.83651729869627	89.41663590645628	0	0	3.235420789340392	-3.235420789340391	0.5833641274541028	12.83651729869627	89.41663590561069	0	0
0.18	-0.3593912484829211	-0.4465908179588987	-79.36616046217365	0	0.9399999999999999	0	0.166010058865396	-1.030146582483577	-3.849676429861182	0.7886901372473543	0.0137652396729723	0	0	0	-0.1661857130940944	-1.063971292331697	-1.821061457250329	1.631444697141034	0.02847408152931276	0	0	0	0	0	0	3.39632204239696	-3.39632204239696	0.612576836421135	13.24863444570537	89.3874231992008	0	0	3.39632204239696	-3.39632204239696	0.612576836421135	13.24863444570537	89.38742319836084	0	0
0.2	-0.3797556983393698	-0.4487744120130124	-79.43197179442096	0	0.9399999999999999	0	0.162845111334828	-1.048370098733618	-3.809029130885039	0.7814310120915179	0.01363854403818861	0	0	0	-0.1786677627449158	-1.068720815737932	-1.87173040413267	1.611277982209954	0.02812210595445432	0	0	0	0	0	0	3.553463088049889	-3.553463088049889	0.6410617704308699	13.66087312139568	89.35893826685948	0	0	3.553463088049889	-3.553463088049889	0.6410617704308699	13.66087312139568	89.35893826602496	0	0
0.22	-0.392565518216262	-0.429737450156477	-79.44399324531939	0	0.9399999999999999	0	0.1763283014403473	-1.07972913552636	-3.825220124897142	0.7580367777255902	0.01323023762251996	0	0	0	-0.1485520314001307	-1.070154810634602	-1.870533126783591	1.597560907475452	0.02788269783659513	0	0	0	0	0	0	3.738175313137366	-3.738175313137365	0.6748012156797021	14.26696122357985	89.32519882359129	0	0	3.738175313137366	-3.738175313137365	0.6748012156797021	14.26696122357985	89.32519882276326	0	0
0.24	-0.3812457546050028	-0.2452201158581855	-79.34700447214371	0	0.9399999999999999	0	0.3300975186838498	-1.197479568104554	-4.029160762030036	0.7407264795686658	0.01292811592517972	0	0	0	0.02216567408592504	-1.02859340499738	-1.752608144830224	1.587930399841215	0.02771461376973924	0	0	0	0	0	0	3.741573774470427	-3.741573774470425	0.675445932105125	14.2896126900792	89.32455410720416	0	0	3.741573774470427	-3.741573774470425	0.675445932105125	14.2896126900792	89.32455410637624	0	0
0.26	-0.3719870420306176	-0.1941728687798021	-79.29716108239931	0	0.9399999999999999	0	0.3503446940101854	-1.237863969362024	-4.138405348588029	0.7481456186425112	0.01305760432968169	0	0	0	0.08271952404467818	-0.9885938050893182	-1.673854915589787	1.627277741909819	0.02840135444074487	0	0	0	0	0	0	3.865061419965651	-3.86506141996565	0.6977153799532241	14.62867429615341	89.30228466065894	0	0	3.865061419965651	-3.86506141996565	0.6977153799532241	14.62867429615341	89.30228465983525	0	0
0.28	-0.3425823826764696	-0.03703786913090931	-79.22975408719562	0	0.9399999999999999	0	0.5413585253893085	-1.309194902216245	-4.235513505011149	0.8939514543512572	0.01560239623142123	0	0	0	0.2944998651673664	-0.9067865144368721	-1.585310087131034	1.806522943487037	0.03152977337666824	0	0	0	0	0	0	4.036135224869791	-4.036135224869789	0.728633635127656	15.22908795870174	89.27136640729522	0	0	4.036135224869791	-4.036135224869789	0.728633635127656	15.22908795870174	89.27136640647763	0	0
0.3	-0.3034563120583291	0.0008423471157391411	-79.14590890375017	0	0.9399999999999999	0	0.5117444986707406	-1.363784443896951	-4.323247544962012	0.6971994206682772	0.01216842543365844	0	0	0	0.266151977166444	-0.8563416916768992	-1.484504821678885	1.664860759292663	0.02905730183690975	0	0	0	0	0	0	4.339353652623259	-4.339353652623257	0.7837663781617871	16.25261514232274	89.21623366749432	0	0	4.339353652623259	-4.339353652623257	0.7837663781617871	16.25261514232274	89.21623366668743	0	0
0.32	-0.3106427932498397	0.06076528330941042	-79.16879781709146	0	0.9399999999999999	0	0.4694588966256439	-1.419057536521808	-4.363742618903113	0.6065056075908771	0.01058551978426952	0	0	0	0.317115827139528	-0.8379729421155514	-1.489756031208449	1.624630942010346	0.02835515906785761	0	0	0	0	0	0	4.430859581220147	-4.430859581220146	0.8000603375211657	16.48743499976857	89.1999397090853	0	0	4.430859581220147	-4.430859581220146	0.8000603375211657	16.48743499976857	89.19993970828153	0	0
0.34	-0.3259334998166797	0.09312988095756879	-79.15636750122519	0	0.9399999999999999	0	0.4445974283370636	-1.419433242546111	-4.337219435006467	0.5495296253629005	0.009591101299833553	0	0	0	0.3363844520818139	-0.7941524675394881	-1.437428389082882	1.623124261975458	0.02832886254047473	0	0	0	0	0	0	4.89687752591946	-4.896877525919458	0.8833293383479958	17.96510119932028	89.11667071312084	0	0	4.89687752591946	-4.896877525919458	0.8833293383479958	17.96510119932028	89.11667071233303	0	0
0.36	-0.3315627716929725	0.09296487467885935	-79.14841338921735	0	0.9399999999999999	0	0.3967188371986637	-1.437385293000241	-4.303365575273116	0.5024853982952171	0.008770024643446641	0	0	0	0.317271582567845	-0.7755915146657185	-1.435442004292306	1.612527585527691	0.02814391564669267	0	0	0	0	0	0	4.996896543182095	-4.996896543182094	0.9011436202424112	18.26121466466979	89.09885643226593	0	0	4.996896543182095	-4.996896543182094	0.9011436202424112	18.26121466466979	89.09885643148152	0	0
0.3800000000000001	-0.357906175533276	0.1229370440473184	-79.13538517912789	0	0.9399999999999999	0	0.3880755328836096	-1.422348179799945	-4.273857330384327	0.4534213582024527	0.007913695599497396	0	0	0	0.3253328710188861	-0.7746869868449424	-1.466921154967431	1.601078818407636	0.02794409696515364	0	0	0	0	0	0	5.112669969308349	-5.112669969308347	0.9216705337338089	18.59496597144877	89.07832951997099	0	0	5.112669969308349	-5.112669969308347	0.9216705337338089	18.59496597144877	89.07832951919055	0	0
0.4000000000000001	-0.3868389497635264	0.1485476299851936	-79.13817546150868	0	0.9399999999999999	0	0.3649086881322794	-1.409245674670921	-4.227188692168134	0.4185755698419236	0.007305521862153048	0	0	0	0.3234912400602481	-0.7760414068604836	-1.526270481700069	1.585194734183835	0.02766686739678424	0	0	0	0	0	0	5.221980174880623	-5.221980174880621	0.9410202811388866	18.91224314395821	89.05897977369338	0	0	5.221980174880623	-5.221980174880621	0.9410202811388866	18.91224314395821	89.05897977291666	0	0
